<svg
	width="1670"
	height="602"
	viewBox="0 0 1670 602"
	fill="none"
	xmlns="http://www.w3.org/2000/svg"
>
	<rect width="1670" height="602" rx="49" fill="white" />
	<rect x="676" y="184" width="410" height="233" rx="20" fill="#1560FB" />
	<path
		d="M848.112 239.224C846.469 239.224 844.997 238.957 843.696 238.424C842.395 237.891 841.349 237.101 840.56 236.056C839.792 235.011 839.387 233.752 839.344 232.28H845.168C845.253 233.112 845.541 233.752 846.032 234.2C846.523 234.627 847.163 234.84 847.952 234.84C848.763 234.84 849.403 234.659 849.872 234.296C850.341 233.912 850.576 233.389 850.576 232.728C850.576 232.173 850.384 231.715 850 231.352C849.637 230.989 849.179 230.691 848.624 230.456C848.091 230.221 847.323 229.955 846.32 229.656C844.869 229.208 843.685 228.76 842.768 228.312C841.851 227.864 841.061 227.203 840.4 226.328C839.739 225.453 839.408 224.312 839.408 222.904C839.408 220.813 840.165 219.181 841.68 218.008C843.195 216.813 845.168 216.216 847.6 216.216C850.075 216.216 852.069 216.813 853.584 218.008C855.099 219.181 855.909 220.824 856.016 222.936H850.096C850.053 222.211 849.787 221.645 849.296 221.24C848.805 220.813 848.176 220.6 847.408 220.6C846.747 220.6 846.213 220.781 845.808 221.144C845.403 221.485 845.2 221.987 845.2 222.648C845.2 223.373 845.541 223.939 846.224 224.344C846.907 224.749 847.973 225.187 849.424 225.656C850.875 226.147 852.048 226.616 852.944 227.064C853.861 227.512 854.651 228.163 855.312 229.016C855.973 229.869 856.304 230.968 856.304 232.312C856.304 233.592 855.973 234.755 855.312 235.8C854.672 236.845 853.733 237.677 852.496 238.296C851.259 238.915 849.797 239.224 848.112 239.224ZM869.624 234.36V239H866.84C864.856 239 863.309 238.52 862.2 237.56C861.09 236.579 860.536 234.989 860.536 232.792V225.688H858.36V221.144H860.536V216.792H866.008V221.144H869.592V225.688H866.008V232.856C866.008 233.389 866.136 233.773 866.392 234.008C866.648 234.243 867.074 234.36 867.672 234.36H869.624ZM880.8 239.256C879.05 239.256 877.472 238.883 876.064 238.136C874.677 237.389 873.578 236.323 872.768 234.936C871.978 233.549 871.584 231.928 871.584 230.072C871.584 228.237 871.989 226.627 872.799 225.24C873.61 223.832 874.72 222.755 876.128 222.008C877.536 221.261 879.114 220.888 880.864 220.888C882.613 220.888 884.192 221.261 885.6 222.008C887.008 222.755 888.117 223.832 888.928 225.24C889.738 226.627 890.144 228.237 890.144 230.072C890.144 231.907 889.728 233.528 888.896 234.936C888.085 236.323 886.965 237.389 885.536 238.136C884.128 238.883 882.549 239.256 880.8 239.256ZM880.8 234.52C881.845 234.52 882.73 234.136 883.456 233.368C884.202 232.6 884.576 231.501 884.576 230.072C884.576 228.643 884.213 227.544 883.488 226.776C882.784 226.008 881.909 225.624 880.864 225.624C879.797 225.624 878.912 226.008 878.208 226.776C877.504 227.523 877.152 228.621 877.152 230.072C877.152 231.501 877.493 232.6 878.176 233.368C878.88 234.136 879.754 234.52 880.8 234.52ZM898.519 224.12C899.159 223.139 899.959 222.371 900.919 221.816C901.879 221.24 902.945 220.952 904.119 220.952V226.744H902.615C901.249 226.744 900.225 227.043 899.543 227.64C898.86 228.216 898.519 229.24 898.519 230.712V239H893.047V221.144H898.519V224.12ZM923.566 229.784C923.566 230.296 923.534 230.829 923.47 231.384H911.086C911.171 232.493 911.523 233.347 912.142 233.944C912.782 234.52 913.561 234.808 914.478 234.808C915.843 234.808 916.793 234.232 917.326 233.08H923.15C922.851 234.253 922.307 235.309 921.518 236.248C920.75 237.187 919.779 237.923 918.606 238.456C917.433 238.989 916.121 239.256 914.67 239.256C912.921 239.256 911.363 238.883 909.998 238.136C908.633 237.389 907.566 236.323 906.798 234.936C906.03 233.549 905.646 231.928 905.646 230.072C905.646 228.216 906.019 226.595 906.766 225.208C907.534 223.821 908.601 222.755 909.966 222.008C911.331 221.261 912.899 220.888 914.67 220.888C916.398 220.888 917.934 221.251 919.278 221.976C920.622 222.701 921.667 223.736 922.414 225.08C923.182 226.424 923.566 227.992 923.566 229.784ZM917.966 228.344C917.966 227.405 917.646 226.659 917.006 226.104C916.366 225.549 915.566 225.272 914.606 225.272C913.689 225.272 912.91 225.539 912.27 226.072C911.651 226.605 911.267 227.363 911.118 228.344H917.966Z"
		fill="white"
	/>
	<rect
		x="691.5"
		y="272.5"
		width="379"
		height="129"
		rx="29.5"
		fill="#397AFF"
		stroke="#5E92FF"
	/>
	<path
		d="M812.75 346.175C811.533 346.175 810.433 345.967 809.45 345.55C808.483 345.133 807.717 344.533 807.15 343.75C806.583 342.967 806.292 342.042 806.275 340.975H810.025C810.075 341.692 810.325 342.258 810.775 342.675C811.242 343.092 811.875 343.3 812.675 343.3C813.492 343.3 814.133 343.108 814.6 342.725C815.067 342.325 815.3 341.808 815.3 341.175C815.3 340.658 815.142 340.233 814.825 339.9C814.508 339.567 814.108 339.308 813.625 339.125C813.158 338.925 812.508 338.708 811.675 338.475C810.542 338.142 809.617 337.817 808.9 337.5C808.2 337.167 807.592 336.675 807.075 336.025C806.575 335.358 806.325 334.475 806.325 333.375C806.325 332.342 806.583 331.442 807.1 330.675C807.617 329.908 808.342 329.325 809.275 328.925C810.208 328.508 811.275 328.3 812.475 328.3C814.275 328.3 815.733 328.742 816.85 329.625C817.983 330.492 818.608 331.708 818.725 333.275H814.875C814.842 332.675 814.583 332.183 814.1 331.8C813.633 331.4 813.008 331.2 812.225 331.2C811.542 331.2 810.992 331.375 810.575 331.725C810.175 332.075 809.975 332.583 809.975 333.25C809.975 333.717 810.125 334.108 810.425 334.425C810.742 334.725 811.125 334.975 811.575 335.175C812.042 335.358 812.692 335.575 813.525 335.825C814.658 336.158 815.583 336.492 816.3 336.825C817.017 337.158 817.633 337.658 818.15 338.325C818.667 338.992 818.925 339.867 818.925 340.95C818.925 341.883 818.683 342.75 818.2 343.55C817.717 344.35 817.008 344.992 816.075 345.475C815.142 345.942 814.033 346.175 812.75 346.175ZM828.109 346.225C826.776 346.225 825.576 345.933 824.509 345.35C823.443 344.75 822.601 343.908 821.984 342.825C821.384 341.742 821.084 340.492 821.084 339.075C821.084 337.658 821.393 336.408 822.009 335.325C822.643 334.242 823.501 333.408 824.584 332.825C825.668 332.225 826.876 331.925 828.209 331.925C829.543 331.925 830.751 332.225 831.834 332.825C832.918 333.408 833.768 334.242 834.384 335.325C835.018 336.408 835.334 337.658 835.334 339.075C835.334 340.492 835.009 341.742 834.359 342.825C833.726 343.908 832.859 344.75 831.759 345.35C830.676 345.933 829.459 346.225 828.109 346.225ZM828.109 343.175C828.743 343.175 829.334 343.025 829.884 342.725C830.451 342.408 830.901 341.942 831.234 341.325C831.568 340.708 831.734 339.958 831.734 339.075C831.734 337.758 831.384 336.75 830.684 336.05C830.001 335.333 829.159 334.975 828.159 334.975C827.159 334.975 826.318 335.333 825.634 336.05C824.968 336.75 824.634 337.758 824.634 339.075C824.634 340.392 824.959 341.408 825.609 342.125C826.276 342.825 827.109 343.175 828.109 343.175ZM855.102 331.95C856.802 331.95 858.168 332.475 859.202 333.525C860.252 334.558 860.777 336.008 860.777 337.875V346H857.277V338.35C857.277 337.267 857.002 336.442 856.452 335.875C855.902 335.292 855.152 335 854.202 335C853.252 335 852.493 335.292 851.927 335.875C851.377 336.442 851.102 337.267 851.102 338.35V346H847.602V338.35C847.602 337.267 847.327 336.442 846.777 335.875C846.227 335.292 845.477 335 844.527 335C843.56 335 842.793 335.292 842.227 335.875C841.677 336.442 841.402 337.267 841.402 338.35V346H837.902V332.15H841.402V333.825C841.852 333.242 842.427 332.783 843.127 332.45C843.843 332.117 844.627 331.95 845.477 331.95C846.56 331.95 847.527 332.183 848.377 332.65C849.227 333.1 849.885 333.75 850.352 334.6C850.802 333.8 851.452 333.158 852.302 332.675C853.168 332.192 854.102 331.95 855.102 331.95ZM876.973 338.775C876.973 339.275 876.94 339.725 876.873 340.125H866.748C866.831 341.125 867.181 341.908 867.798 342.475C868.415 343.042 869.173 343.325 870.073 343.325C871.373 343.325 872.298 342.767 872.848 341.65H876.623C876.223 342.983 875.456 344.083 874.323 344.95C873.19 345.8 871.798 346.225 870.148 346.225C868.815 346.225 867.615 345.933 866.548 345.35C865.498 344.75 864.673 343.908 864.073 342.825C863.49 341.742 863.198 340.492 863.198 339.075C863.198 337.642 863.49 336.383 864.073 335.3C864.656 334.217 865.473 333.383 866.523 332.8C867.573 332.217 868.781 331.925 870.148 331.925C871.465 331.925 872.64 332.208 873.673 332.775C874.723 333.342 875.531 334.15 876.098 335.2C876.681 336.233 876.973 337.425 876.973 338.775ZM873.348 337.775C873.331 336.875 873.006 336.158 872.373 335.625C871.74 335.075 870.965 334.8 870.048 334.8C869.181 334.8 868.448 335.067 867.848 335.6C867.265 336.117 866.906 336.842 866.773 337.775H873.348ZM901.16 328.55L894.76 346H890.51L884.11 328.55H887.86L892.66 342.425L897.435 328.55H901.16ZM902.358 339.025C902.358 337.625 902.633 336.383 903.183 335.3C903.75 334.217 904.508 333.383 905.458 332.8C906.425 332.217 907.5 331.925 908.683 331.925C909.717 331.925 910.617 332.133 911.383 332.55C912.167 332.967 912.792 333.492 913.258 334.125V332.15H916.783V346H913.258V343.975C912.808 344.625 912.183 345.167 911.383 345.6C910.6 346.017 909.692 346.225 908.658 346.225C907.492 346.225 906.425 345.925 905.458 345.325C904.508 344.725 903.75 343.883 903.183 342.8C902.633 341.7 902.358 340.442 902.358 339.025ZM913.258 339.075C913.258 338.225 913.092 337.5 912.758 336.9C912.425 336.283 911.975 335.817 911.408 335.5C910.842 335.167 910.233 335 909.583 335C908.933 335 908.333 335.158 907.783 335.475C907.233 335.792 906.783 336.258 906.433 336.875C906.1 337.475 905.933 338.192 905.933 339.025C905.933 339.858 906.1 340.592 906.433 341.225C906.783 341.842 907.233 342.317 907.783 342.65C908.35 342.983 908.95 343.15 909.583 343.15C910.233 343.15 910.842 342.992 911.408 342.675C911.975 342.342 912.425 341.875 912.758 341.275C913.092 340.658 913.258 339.925 913.258 339.075ZM923.702 327.5V346H920.202V327.5H923.702ZM940.235 332.15V346H936.71V344.25C936.26 344.85 935.668 345.325 934.935 345.675C934.218 346.008 933.435 346.175 932.585 346.175C931.501 346.175 930.543 345.95 929.71 345.5C928.876 345.033 928.218 344.358 927.735 343.475C927.268 342.575 927.035 341.508 927.035 340.275V332.15H930.535V339.775C930.535 340.875 930.81 341.725 931.36 342.325C931.91 342.908 932.66 343.2 933.61 343.2C934.576 343.2 935.335 342.908 935.885 342.325C936.435 341.725 936.71 340.875 936.71 339.775V332.15H940.235ZM956.563 338.775C956.563 339.275 956.53 339.725 956.463 340.125H946.338C946.421 341.125 946.771 341.908 947.388 342.475C948.005 343.042 948.763 343.325 949.663 343.325C950.963 343.325 951.888 342.767 952.438 341.65H956.213C955.813 342.983 955.046 344.083 953.913 344.95C952.78 345.8 951.388 346.225 949.738 346.225C948.405 346.225 947.205 345.933 946.138 345.35C945.088 344.75 944.263 343.908 943.663 342.825C943.08 341.742 942.788 340.492 942.788 339.075C942.788 337.642 943.08 336.383 943.663 335.3C944.246 334.217 945.063 333.383 946.113 332.8C947.163 332.217 948.371 331.925 949.738 331.925C951.055 331.925 952.23 332.208 953.263 332.775C954.313 333.342 955.121 334.15 955.688 335.2C956.271 336.233 956.563 337.425 956.563 338.775ZM952.938 337.775C952.921 336.875 952.596 336.158 951.963 335.625C951.33 335.075 950.555 334.8 949.638 334.8C948.771 334.8 948.038 335.067 947.438 335.6C946.855 336.117 946.496 336.842 946.363 337.775H952.938Z"
		fill="white"
	/>
	<rect x="1266" y="60" width="344" height="196" rx="30" fill="#EBF1FF" />
	<path
		d="M1367.74 95.65C1367.74 94.208 1368.06 92.92 1368.7 91.786C1369.36 90.638 1370.25 89.749 1371.37 89.119C1372.5 88.475 1373.77 88.153 1375.17 88.153C1376.81 88.153 1378.24 88.573 1379.47 89.413C1380.71 90.253 1381.57 91.415 1382.06 92.899H1378.68C1378.34 92.199 1377.86 91.674 1377.25 91.324C1376.65 90.974 1375.95 90.799 1375.15 90.799C1374.29 90.799 1373.53 91.002 1372.86 91.408C1372.2 91.8 1371.68 92.36 1371.31 93.088C1370.94 93.816 1370.76 94.67 1370.76 95.65C1370.76 96.616 1370.94 97.47 1371.31 98.212C1371.68 98.94 1372.2 99.507 1372.86 99.913C1373.53 100.305 1374.29 100.501 1375.15 100.501C1375.95 100.501 1376.65 100.326 1377.25 99.976C1377.86 99.612 1378.34 99.08 1378.68 98.38H1382.06C1381.57 99.878 1380.71 101.047 1379.47 101.887C1378.26 102.713 1376.82 103.126 1375.17 103.126C1373.77 103.126 1372.5 102.811 1371.37 102.181C1370.25 101.537 1369.36 100.648 1368.7 99.514C1368.06 98.38 1367.74 97.092 1367.74 95.65ZM1389.73 103.189C1388.61 103.189 1387.61 102.944 1386.71 102.454C1385.81 101.95 1385.11 101.243 1384.59 100.333C1384.09 99.423 1383.83 98.373 1383.83 97.183C1383.83 95.993 1384.09 94.943 1384.61 94.033C1385.14 93.123 1385.86 92.423 1386.77 91.933C1387.68 91.429 1388.7 91.177 1389.82 91.177C1390.94 91.177 1391.95 91.429 1392.86 91.933C1393.77 92.423 1394.49 93.123 1395.01 94.033C1395.54 94.943 1395.8 95.993 1395.8 97.183C1395.8 98.373 1395.53 99.423 1394.98 100.333C1394.45 101.243 1393.72 101.95 1392.8 102.454C1391.89 102.944 1390.87 103.189 1389.73 103.189ZM1389.73 100.627C1390.27 100.627 1390.76 100.501 1391.23 100.249C1391.7 99.983 1392.08 99.591 1392.36 99.073C1392.64 98.555 1392.78 97.925 1392.78 97.183C1392.78 96.077 1392.49 95.23 1391.9 94.642C1391.32 94.04 1390.62 93.739 1389.78 93.739C1388.94 93.739 1388.23 94.04 1387.66 94.642C1387.1 95.23 1386.82 96.077 1386.82 97.183C1386.82 98.289 1387.09 99.143 1387.63 99.745C1388.19 100.333 1388.89 100.627 1389.73 100.627ZM1412.41 91.198C1413.84 91.198 1414.98 91.639 1415.85 92.521C1416.73 93.389 1417.17 94.607 1417.17 96.175V103H1414.23V96.574C1414.23 95.664 1414 94.971 1413.54 94.495C1413.08 94.005 1412.45 93.76 1411.65 93.76C1410.85 93.76 1410.22 94.005 1409.74 94.495C1409.28 94.971 1409.05 95.664 1409.05 96.574V103H1406.11V96.574C1406.11 95.664 1405.88 94.971 1405.41 94.495C1404.95 94.005 1404.32 93.76 1403.52 93.76C1402.71 93.76 1402.07 94.005 1401.59 94.495C1401.13 94.971 1400.9 95.664 1400.9 96.574V103H1397.96V91.366H1400.9V92.773C1401.28 92.283 1401.76 91.898 1402.35 91.618C1402.95 91.338 1403.61 91.198 1404.32 91.198C1405.23 91.198 1406.04 91.394 1406.76 91.786C1407.47 92.164 1408.03 92.71 1408.42 93.424C1408.8 92.752 1409.34 92.213 1410.06 91.807C1410.78 91.401 1411.57 91.198 1412.41 91.198ZM1422.9 93.046C1423.28 92.514 1423.8 92.073 1424.46 91.723C1425.13 91.359 1425.89 91.177 1426.75 91.177C1427.74 91.177 1428.64 91.422 1429.44 91.912C1430.25 92.402 1430.88 93.102 1431.35 94.012C1431.82 94.908 1432.06 95.951 1432.06 97.141C1432.06 98.331 1431.82 99.388 1431.35 100.312C1430.88 101.222 1430.25 101.929 1429.44 102.433C1428.64 102.937 1427.74 103.189 1426.75 103.189C1425.89 103.189 1425.14 103.014 1424.48 102.664C1423.84 102.314 1423.31 101.873 1422.9 101.341V108.544H1419.96V91.366H1422.9V93.046ZM1429.06 97.141C1429.06 96.441 1428.91 95.839 1428.62 95.335C1428.34 94.817 1427.96 94.425 1427.48 94.159C1427.02 93.893 1426.52 93.76 1425.97 93.76C1425.44 93.76 1424.93 93.9 1424.46 94.18C1424 94.446 1423.62 94.838 1423.32 95.356C1423.04 95.874 1422.9 96.483 1422.9 97.183C1422.9 97.883 1423.04 98.492 1423.32 99.01C1423.62 99.528 1424 99.927 1424.46 100.207C1424.93 100.473 1425.44 100.606 1425.97 100.606C1426.52 100.606 1427.02 100.466 1427.48 100.186C1427.96 99.906 1428.34 99.507 1428.62 98.989C1428.91 98.471 1429.06 97.855 1429.06 97.141ZM1439.36 103.189C1438.24 103.189 1437.24 102.944 1436.34 102.454C1435.44 101.95 1434.74 101.243 1434.22 100.333C1433.71 99.423 1433.46 98.373 1433.46 97.183C1433.46 95.993 1433.72 94.943 1434.24 94.033C1434.77 93.123 1435.49 92.423 1436.4 91.933C1437.31 91.429 1438.33 91.177 1439.45 91.177C1440.57 91.177 1441.58 91.429 1442.49 91.933C1443.4 92.423 1444.12 93.123 1444.63 94.033C1445.17 94.943 1445.43 95.993 1445.43 97.183C1445.43 98.373 1445.16 99.423 1444.61 100.333C1444.08 101.243 1443.35 101.95 1442.43 102.454C1441.52 102.944 1440.5 103.189 1439.36 103.189ZM1439.36 100.627C1439.9 100.627 1440.39 100.501 1440.85 100.249C1441.33 99.983 1441.71 99.591 1441.99 99.073C1442.27 98.555 1442.41 97.925 1442.41 97.183C1442.41 96.077 1442.11 95.23 1441.53 94.642C1440.95 94.04 1440.25 93.739 1439.41 93.739C1438.57 93.739 1437.86 94.04 1437.28 94.642C1436.72 95.23 1436.44 96.077 1436.44 97.183C1436.44 98.289 1436.72 99.143 1437.26 99.745C1437.82 100.333 1438.52 100.627 1439.36 100.627ZM1454.04 91.198C1455.42 91.198 1456.54 91.639 1457.4 92.521C1458.25 93.389 1458.68 94.607 1458.68 96.175V103H1455.74V96.574C1455.74 95.65 1455.51 94.943 1455.04 94.453C1454.58 93.949 1453.95 93.697 1453.15 93.697C1452.34 93.697 1451.7 93.949 1451.22 94.453C1450.76 94.943 1450.53 95.65 1450.53 96.574V103H1447.59V91.366H1450.53V92.815C1450.92 92.311 1451.42 91.919 1452.02 91.639C1452.64 91.345 1453.31 91.198 1454.04 91.198ZM1472.29 96.931C1472.29 97.351 1472.26 97.729 1472.2 98.065H1463.7C1463.77 98.905 1464.06 99.563 1464.58 100.039C1465.1 100.515 1465.74 100.753 1466.49 100.753C1467.58 100.753 1468.36 100.284 1468.82 99.346H1471.99C1471.66 100.466 1471.01 101.39 1470.06 102.118C1469.11 102.832 1467.94 103.189 1466.55 103.189C1465.43 103.189 1464.43 102.944 1463.53 102.454C1462.65 101.95 1461.96 101.243 1461.45 100.333C1460.96 99.423 1460.72 98.373 1460.72 97.183C1460.72 95.979 1460.96 94.922 1461.45 94.012C1461.94 93.102 1462.63 92.402 1463.51 91.912C1464.39 91.422 1465.41 91.177 1466.55 91.177C1467.66 91.177 1468.65 91.415 1469.52 91.891C1470.4 92.367 1471.08 93.046 1471.55 93.928C1472.04 94.796 1472.29 95.797 1472.29 96.931ZM1469.24 96.091C1469.23 95.335 1468.96 94.733 1468.42 94.285C1467.89 93.823 1467.24 93.592 1466.47 93.592C1465.74 93.592 1465.13 93.816 1464.62 94.264C1464.13 94.698 1463.83 95.307 1463.72 96.091H1469.24ZM1480.88 91.198C1482.27 91.198 1483.39 91.639 1484.24 92.521C1485.09 93.389 1485.52 94.607 1485.52 96.175V103H1482.58V96.574C1482.58 95.65 1482.35 94.943 1481.89 94.453C1481.43 93.949 1480.8 93.697 1480 93.697C1479.19 93.697 1478.54 93.949 1478.07 94.453C1477.6 94.943 1477.37 95.65 1477.37 96.574V103H1474.43V91.366H1477.37V92.815C1477.77 92.311 1478.26 91.919 1478.86 91.639C1479.48 91.345 1480.15 91.198 1480.88 91.198ZM1491.74 93.781V99.409C1491.74 99.801 1491.83 100.088 1492.01 100.27C1492.21 100.438 1492.53 100.522 1492.98 100.522H1494.34V103H1492.5C1490.02 103 1488.78 101.796 1488.78 99.388V93.781H1487.39V91.366H1488.78V88.489H1491.74V91.366H1494.34V93.781H1491.74ZM1500.77 90.4V87.691H1505.83V103H1502.81V90.4H1500.77Z"
		fill="#5D78B0"
	/>
	<path
		d="M1369.9 187.175C1368.62 187.175 1367.47 186.967 1366.45 186.55C1365.43 186.133 1364.62 185.517 1364 184.7C1363.4 183.883 1363.08 182.9 1363.05 181.75H1367.6C1367.67 182.4 1367.89 182.9 1368.28 183.25C1368.66 183.583 1369.16 183.75 1369.78 183.75C1370.41 183.75 1370.91 183.608 1371.28 183.325C1371.64 183.025 1371.83 182.617 1371.83 182.1C1371.83 181.667 1371.68 181.308 1371.38 181.025C1371.09 180.742 1370.73 180.508 1370.3 180.325C1369.88 180.142 1369.28 179.933 1368.5 179.7C1367.37 179.35 1366.44 179 1365.73 178.65C1365.01 178.3 1364.39 177.783 1363.88 177.1C1363.36 176.417 1363.1 175.525 1363.1 174.425C1363.1 172.792 1363.69 171.517 1364.88 170.6C1366.06 169.667 1367.6 169.2 1369.5 169.2C1371.43 169.2 1372.99 169.667 1374.18 170.6C1375.36 171.517 1375.99 172.8 1376.08 174.45H1371.45C1371.42 173.883 1371.21 173.442 1370.83 173.125C1370.44 172.792 1369.95 172.625 1369.35 172.625C1368.83 172.625 1368.42 172.767 1368.1 173.05C1367.78 173.317 1367.63 173.708 1367.63 174.225C1367.63 174.792 1367.89 175.233 1368.42 175.55C1368.96 175.867 1369.79 176.208 1370.93 176.575C1372.06 176.958 1372.98 177.325 1373.68 177.675C1374.39 178.025 1375.01 178.533 1375.53 179.2C1376.04 179.867 1376.3 180.725 1376.3 181.775C1376.3 182.775 1376.04 183.683 1375.53 184.5C1375.03 185.317 1374.29 185.967 1373.33 186.45C1372.36 186.933 1371.22 187.175 1369.9 187.175ZM1385.28 187.2C1383.91 187.2 1382.68 186.908 1381.58 186.325C1380.5 185.742 1379.64 184.908 1379.01 183.825C1378.39 182.742 1378.08 181.475 1378.08 180.025C1378.08 178.592 1378.4 177.333 1379.03 176.25C1379.66 175.15 1380.53 174.308 1381.63 173.725C1382.73 173.142 1383.96 172.85 1385.33 172.85C1386.7 172.85 1387.93 173.142 1389.03 173.725C1390.13 174.308 1391 175.15 1391.63 176.25C1392.26 177.333 1392.58 178.592 1392.58 180.025C1392.58 181.458 1392.26 182.725 1391.61 183.825C1390.97 184.908 1390.1 185.742 1388.98 186.325C1387.88 186.908 1386.65 187.2 1385.28 187.2ZM1385.28 183.5C1386.1 183.5 1386.79 183.2 1387.36 182.6C1387.94 182 1388.23 181.142 1388.23 180.025C1388.23 178.908 1387.95 178.05 1387.38 177.45C1386.83 176.85 1386.15 176.55 1385.33 176.55C1384.5 176.55 1383.81 176.85 1383.26 177.45C1382.71 178.033 1382.43 178.892 1382.43 180.025C1382.43 181.142 1382.7 182 1383.23 182.6C1383.78 183.2 1384.46 183.5 1385.28 183.5ZM1412.65 172.9C1414.38 172.9 1415.76 173.425 1416.77 174.475C1417.81 175.525 1418.32 176.983 1418.32 178.85V187H1414.07V179.425C1414.07 178.525 1413.83 177.833 1413.35 177.35C1412.88 176.85 1412.23 176.6 1411.4 176.6C1410.57 176.6 1409.91 176.85 1409.42 177.35C1408.96 177.833 1408.72 178.525 1408.72 179.425V187H1404.47V179.425C1404.47 178.525 1404.23 177.833 1403.75 177.35C1403.28 176.85 1402.63 176.6 1401.8 176.6C1400.97 176.6 1400.31 176.85 1399.82 177.35C1399.36 177.833 1399.12 178.525 1399.12 179.425V187H1394.85V173.05H1399.12V174.8C1399.56 174.217 1400.12 173.758 1400.82 173.425C1401.52 173.075 1402.32 172.9 1403.2 172.9C1404.25 172.9 1405.18 173.125 1406 173.575C1406.83 174.025 1407.48 174.667 1407.95 175.5C1408.43 174.733 1409.09 174.108 1409.92 173.625C1410.76 173.142 1411.67 172.9 1412.65 172.9ZM1434.46 179.8C1434.46 180.2 1434.44 180.617 1434.39 181.05H1424.71C1424.78 181.917 1425.06 182.583 1425.54 183.05C1426.04 183.5 1426.65 183.725 1427.36 183.725C1428.43 183.725 1429.17 183.275 1429.59 182.375H1434.14C1433.91 183.292 1433.48 184.117 1432.86 184.85C1432.26 185.583 1431.51 186.158 1430.59 186.575C1429.67 186.992 1428.65 187.2 1427.51 187.2C1426.15 187.2 1424.93 186.908 1423.86 186.325C1422.8 185.742 1421.96 184.908 1421.36 183.825C1420.76 182.742 1420.46 181.475 1420.46 180.025C1420.46 178.575 1420.76 177.308 1421.34 176.225C1421.94 175.142 1422.77 174.308 1423.84 173.725C1424.91 173.142 1426.13 172.85 1427.51 172.85C1428.86 172.85 1430.06 173.133 1431.11 173.7C1432.16 174.267 1432.98 175.075 1433.56 176.125C1434.16 177.175 1434.46 178.4 1434.46 179.8ZM1430.09 178.675C1430.09 177.942 1429.84 177.358 1429.34 176.925C1428.84 176.492 1428.21 176.275 1427.46 176.275C1426.75 176.275 1426.14 176.483 1425.64 176.9C1425.16 177.317 1424.86 177.908 1424.74 178.675H1430.09ZM1458.49 169.45L1452.27 187H1446.92L1440.69 169.45H1445.24L1449.59 182.7L1453.97 169.45H1458.49ZM1459.43 180C1459.43 178.567 1459.7 177.308 1460.23 176.225C1460.78 175.142 1461.52 174.308 1462.45 173.725C1463.39 173.142 1464.43 172.85 1465.58 172.85C1466.56 172.85 1467.42 173.05 1468.15 173.45C1468.9 173.85 1469.48 174.375 1469.88 175.025V173.05H1474.15V187H1469.88V185.025C1469.46 185.675 1468.88 186.2 1468.13 186.6C1467.4 187 1466.54 187.2 1465.55 187.2C1464.42 187.2 1463.39 186.908 1462.45 186.325C1461.52 185.725 1460.78 184.883 1460.23 183.8C1459.7 182.7 1459.43 181.433 1459.43 180ZM1469.88 180.025C1469.88 178.958 1469.58 178.117 1468.98 177.5C1468.4 176.883 1467.68 176.575 1466.83 176.575C1465.98 176.575 1465.25 176.883 1464.65 177.5C1464.07 178.1 1463.78 178.933 1463.78 180C1463.78 181.067 1464.07 181.917 1464.65 182.55C1465.25 183.167 1465.98 183.475 1466.83 183.475C1467.68 183.475 1468.4 183.167 1468.98 182.55C1469.58 181.933 1469.88 181.092 1469.88 180.025ZM1481.52 168.5V187H1477.25V168.5H1481.52ZM1498.39 173.05V187H1494.12V185.1C1493.69 185.717 1493.09 186.217 1492.34 186.6C1491.61 186.967 1490.79 187.15 1489.89 187.15C1488.83 187.15 1487.89 186.917 1487.07 186.45C1486.25 185.967 1485.62 185.275 1485.17 184.375C1484.72 183.475 1484.49 182.417 1484.49 181.2V173.05H1488.74V180.625C1488.74 181.558 1488.99 182.283 1489.47 182.8C1489.95 183.317 1490.6 183.575 1491.42 183.575C1492.25 183.575 1492.91 183.317 1493.39 182.8C1493.88 182.283 1494.12 181.558 1494.12 180.625V173.05H1498.39ZM1514.62 179.8C1514.62 180.2 1514.59 180.617 1514.54 181.05H1504.87C1504.93 181.917 1505.21 182.583 1505.69 183.05C1506.19 183.5 1506.8 183.725 1507.52 183.725C1508.58 183.725 1509.32 183.275 1509.74 182.375H1514.29C1514.06 183.292 1513.63 184.117 1513.02 184.85C1512.42 185.583 1511.66 186.158 1510.74 186.575C1509.82 186.992 1508.8 187.2 1507.67 187.2C1506.3 187.2 1505.08 186.908 1504.02 186.325C1502.95 185.742 1502.12 184.908 1501.52 183.825C1500.92 182.742 1500.62 181.475 1500.62 180.025C1500.62 178.575 1500.91 177.308 1501.49 176.225C1502.09 175.142 1502.92 174.308 1503.99 173.725C1505.06 173.142 1506.28 172.85 1507.67 172.85C1509.02 172.85 1510.22 173.133 1511.27 173.7C1512.32 174.267 1513.13 175.075 1513.72 176.125C1514.32 177.175 1514.62 178.4 1514.62 179.8ZM1510.24 178.675C1510.24 177.942 1509.99 177.358 1509.49 176.925C1508.99 176.492 1508.37 176.275 1507.62 176.275C1506.9 176.275 1506.29 176.483 1505.79 176.9C1505.31 177.317 1505.01 177.908 1504.89 178.675H1510.24Z"
		fill="black"
	/>
	<rect x="1266" y="346" width="344" height="196" rx="30" fill="#EBF1FF" />
	<path
		d="M1365.74 381.65C1365.74 380.208 1366.06 378.92 1366.7 377.786C1367.36 376.638 1368.25 375.749 1369.37 375.119C1370.5 374.475 1371.77 374.153 1373.17 374.153C1374.81 374.153 1376.24 374.573 1377.47 375.413C1378.71 376.253 1379.57 377.415 1380.06 378.899H1376.68C1376.34 378.199 1375.86 377.674 1375.25 377.324C1374.65 376.974 1373.95 376.799 1373.15 376.799C1372.29 376.799 1371.53 377.002 1370.86 377.408C1370.2 377.8 1369.68 378.36 1369.31 379.088C1368.94 379.816 1368.76 380.67 1368.76 381.65C1368.76 382.616 1368.94 383.47 1369.31 384.212C1369.68 384.94 1370.2 385.507 1370.86 385.913C1371.53 386.305 1372.29 386.501 1373.15 386.501C1373.95 386.501 1374.65 386.326 1375.25 385.976C1375.86 385.612 1376.34 385.08 1376.68 384.38H1380.06C1379.57 385.878 1378.71 387.047 1377.47 387.887C1376.26 388.713 1374.82 389.126 1373.17 389.126C1371.77 389.126 1370.5 388.811 1369.37 388.181C1368.25 387.537 1367.36 386.648 1366.7 385.514C1366.06 384.38 1365.74 383.092 1365.74 381.65ZM1387.73 389.189C1386.61 389.189 1385.61 388.944 1384.71 388.454C1383.81 387.95 1383.11 387.243 1382.59 386.333C1382.09 385.423 1381.83 384.373 1381.83 383.183C1381.83 381.993 1382.09 380.943 1382.61 380.033C1383.14 379.123 1383.86 378.423 1384.77 377.933C1385.68 377.429 1386.7 377.177 1387.82 377.177C1388.94 377.177 1389.95 377.429 1390.86 377.933C1391.77 378.423 1392.49 379.123 1393.01 380.033C1393.54 380.943 1393.8 381.993 1393.8 383.183C1393.8 384.373 1393.53 385.423 1392.98 386.333C1392.45 387.243 1391.72 387.95 1390.8 388.454C1389.89 388.944 1388.87 389.189 1387.73 389.189ZM1387.73 386.627C1388.27 386.627 1388.76 386.501 1389.23 386.249C1389.7 385.983 1390.08 385.591 1390.36 385.073C1390.64 384.555 1390.78 383.925 1390.78 383.183C1390.78 382.077 1390.49 381.23 1389.9 380.642C1389.32 380.04 1388.62 379.739 1387.78 379.739C1386.94 379.739 1386.23 380.04 1385.66 380.642C1385.1 381.23 1384.82 382.077 1384.82 383.183C1384.82 384.289 1385.09 385.143 1385.63 385.745C1386.19 386.333 1386.89 386.627 1387.73 386.627ZM1410.41 377.198C1411.84 377.198 1412.98 377.639 1413.85 378.521C1414.73 379.389 1415.17 380.607 1415.17 382.175V389H1412.23V382.574C1412.23 381.664 1412 380.971 1411.54 380.495C1411.08 380.005 1410.45 379.76 1409.65 379.76C1408.85 379.76 1408.22 380.005 1407.74 380.495C1407.28 380.971 1407.05 381.664 1407.05 382.574V389H1404.11V382.574C1404.11 381.664 1403.88 380.971 1403.41 380.495C1402.95 380.005 1402.32 379.76 1401.52 379.76C1400.71 379.76 1400.07 380.005 1399.59 380.495C1399.13 380.971 1398.9 381.664 1398.9 382.574V389H1395.96V377.366H1398.9V378.773C1399.28 378.283 1399.76 377.898 1400.35 377.618C1400.95 377.338 1401.61 377.198 1402.32 377.198C1403.23 377.198 1404.04 377.394 1404.76 377.786C1405.47 378.164 1406.03 378.71 1406.42 379.424C1406.8 378.752 1407.34 378.213 1408.06 377.807C1408.78 377.401 1409.57 377.198 1410.41 377.198ZM1420.9 379.046C1421.28 378.514 1421.8 378.073 1422.46 377.723C1423.13 377.359 1423.89 377.177 1424.75 377.177C1425.74 377.177 1426.64 377.422 1427.44 377.912C1428.25 378.402 1428.88 379.102 1429.35 380.012C1429.82 380.908 1430.06 381.951 1430.06 383.141C1430.06 384.331 1429.82 385.388 1429.35 386.312C1428.88 387.222 1428.25 387.929 1427.44 388.433C1426.64 388.937 1425.74 389.189 1424.75 389.189C1423.89 389.189 1423.14 389.014 1422.48 388.664C1421.84 388.314 1421.31 387.873 1420.9 387.341V394.544H1417.96V377.366H1420.9V379.046ZM1427.06 383.141C1427.06 382.441 1426.91 381.839 1426.62 381.335C1426.34 380.817 1425.96 380.425 1425.48 380.159C1425.02 379.893 1424.52 379.76 1423.97 379.76C1423.44 379.76 1422.93 379.9 1422.46 380.18C1422 380.446 1421.62 380.838 1421.32 381.356C1421.04 381.874 1420.9 382.483 1420.9 383.183C1420.9 383.883 1421.04 384.492 1421.32 385.01C1421.62 385.528 1422 385.927 1422.46 386.207C1422.93 386.473 1423.44 386.606 1423.97 386.606C1424.52 386.606 1425.02 386.466 1425.48 386.186C1425.96 385.906 1426.34 385.507 1426.62 384.989C1426.91 384.471 1427.06 383.855 1427.06 383.141ZM1437.36 389.189C1436.24 389.189 1435.24 388.944 1434.34 388.454C1433.44 387.95 1432.74 387.243 1432.22 386.333C1431.71 385.423 1431.46 384.373 1431.46 383.183C1431.46 381.993 1431.72 380.943 1432.24 380.033C1432.77 379.123 1433.49 378.423 1434.4 377.933C1435.31 377.429 1436.33 377.177 1437.45 377.177C1438.57 377.177 1439.58 377.429 1440.49 377.933C1441.4 378.423 1442.12 379.123 1442.63 380.033C1443.17 380.943 1443.43 381.993 1443.43 383.183C1443.43 384.373 1443.16 385.423 1442.61 386.333C1442.08 387.243 1441.35 387.95 1440.43 388.454C1439.52 388.944 1438.5 389.189 1437.36 389.189ZM1437.36 386.627C1437.9 386.627 1438.39 386.501 1438.85 386.249C1439.33 385.983 1439.71 385.591 1439.99 385.073C1440.27 384.555 1440.41 383.925 1440.41 383.183C1440.41 382.077 1440.11 381.23 1439.53 380.642C1438.95 380.04 1438.25 379.739 1437.41 379.739C1436.57 379.739 1435.86 380.04 1435.28 380.642C1434.72 381.23 1434.44 382.077 1434.44 383.183C1434.44 384.289 1434.72 385.143 1435.26 385.745C1435.82 386.333 1436.52 386.627 1437.36 386.627ZM1452.04 377.198C1453.42 377.198 1454.54 377.639 1455.4 378.521C1456.25 379.389 1456.68 380.607 1456.68 382.175V389H1453.74V382.574C1453.74 381.65 1453.51 380.943 1453.04 380.453C1452.58 379.949 1451.95 379.697 1451.15 379.697C1450.34 379.697 1449.7 379.949 1449.22 380.453C1448.76 380.943 1448.53 381.65 1448.53 382.574V389H1445.59V377.366H1448.53V378.815C1448.92 378.311 1449.42 377.919 1450.02 377.639C1450.64 377.345 1451.31 377.198 1452.04 377.198ZM1470.29 382.931C1470.29 383.351 1470.26 383.729 1470.2 384.065H1461.7C1461.77 384.905 1462.06 385.563 1462.58 386.039C1463.1 386.515 1463.74 386.753 1464.49 386.753C1465.58 386.753 1466.36 386.284 1466.82 385.346H1469.99C1469.66 386.466 1469.01 387.39 1468.06 388.118C1467.11 388.832 1465.94 389.189 1464.55 389.189C1463.43 389.189 1462.43 388.944 1461.53 388.454C1460.65 387.95 1459.96 387.243 1459.45 386.333C1458.96 385.423 1458.72 384.373 1458.72 383.183C1458.72 381.979 1458.96 380.922 1459.45 380.012C1459.94 379.102 1460.63 378.402 1461.51 377.912C1462.39 377.422 1463.41 377.177 1464.55 377.177C1465.66 377.177 1466.65 377.415 1467.52 377.891C1468.4 378.367 1469.08 379.046 1469.55 379.928C1470.04 380.796 1470.29 381.797 1470.29 382.931ZM1467.24 382.091C1467.23 381.335 1466.96 380.733 1466.42 380.285C1465.89 379.823 1465.24 379.592 1464.47 379.592C1463.74 379.592 1463.13 379.816 1462.62 380.264C1462.13 380.698 1461.83 381.307 1461.72 382.091H1467.24ZM1478.88 377.198C1480.27 377.198 1481.39 377.639 1482.24 378.521C1483.09 379.389 1483.52 380.607 1483.52 382.175V389H1480.58V382.574C1480.58 381.65 1480.35 380.943 1479.89 380.453C1479.43 379.949 1478.8 379.697 1478 379.697C1477.19 379.697 1476.54 379.949 1476.07 380.453C1475.6 380.943 1475.37 381.65 1475.37 382.574V389H1472.43V377.366H1475.37V378.815C1475.77 378.311 1476.26 377.919 1476.86 377.639C1477.48 377.345 1478.15 377.198 1478.88 377.198ZM1489.74 379.781V385.409C1489.74 385.801 1489.83 386.088 1490.01 386.27C1490.21 386.438 1490.53 386.522 1490.98 386.522H1492.34V389H1490.5C1488.02 389 1486.78 387.796 1486.78 385.388V379.781H1485.39V377.366H1486.78V374.489H1489.74V377.366H1492.34V379.781H1489.74ZM1500.05 385.682C1501.39 384.562 1502.47 383.631 1503.26 382.889C1504.06 382.133 1504.73 381.349 1505.26 380.537C1505.79 379.725 1506.06 378.927 1506.06 378.143C1506.06 377.429 1505.89 376.869 1505.55 376.463C1505.22 376.057 1504.7 375.854 1504 375.854C1503.3 375.854 1502.76 376.092 1502.38 376.568C1502 377.03 1501.81 377.667 1501.79 378.479H1498.94C1498.99 376.799 1499.49 375.525 1500.43 374.657C1501.38 373.789 1502.58 373.355 1504.04 373.355C1505.64 373.355 1506.86 373.782 1507.72 374.636C1508.57 375.476 1509 376.589 1509 377.975C1509 379.067 1508.7 380.11 1508.11 381.104C1507.53 382.098 1506.85 382.966 1506.1 383.708C1505.34 384.436 1504.36 385.318 1503.14 386.354H1509.33V388.79H1498.96V386.606L1500.05 385.682Z"
		fill="#5D78B0"
	/>
	<path
		d="M1369.9 473.175C1368.62 473.175 1367.47 472.967 1366.45 472.55C1365.43 472.133 1364.62 471.517 1364 470.7C1363.4 469.883 1363.08 468.9 1363.05 467.75H1367.6C1367.67 468.4 1367.89 468.9 1368.28 469.25C1368.66 469.583 1369.16 469.75 1369.78 469.75C1370.41 469.75 1370.91 469.608 1371.28 469.325C1371.64 469.025 1371.83 468.617 1371.83 468.1C1371.83 467.667 1371.68 467.308 1371.38 467.025C1371.09 466.742 1370.73 466.508 1370.3 466.325C1369.88 466.142 1369.28 465.933 1368.5 465.7C1367.37 465.35 1366.44 465 1365.73 464.65C1365.01 464.3 1364.39 463.783 1363.88 463.1C1363.36 462.417 1363.1 461.525 1363.1 460.425C1363.1 458.792 1363.69 457.517 1364.88 456.6C1366.06 455.667 1367.6 455.2 1369.5 455.2C1371.43 455.2 1372.99 455.667 1374.18 456.6C1375.36 457.517 1375.99 458.8 1376.08 460.45H1371.45C1371.42 459.883 1371.21 459.442 1370.83 459.125C1370.44 458.792 1369.95 458.625 1369.35 458.625C1368.83 458.625 1368.42 458.767 1368.1 459.05C1367.78 459.317 1367.63 459.708 1367.63 460.225C1367.63 460.792 1367.89 461.233 1368.42 461.55C1368.96 461.867 1369.79 462.208 1370.93 462.575C1372.06 462.958 1372.98 463.325 1373.68 463.675C1374.39 464.025 1375.01 464.533 1375.53 465.2C1376.04 465.867 1376.3 466.725 1376.3 467.775C1376.3 468.775 1376.04 469.683 1375.53 470.5C1375.03 471.317 1374.29 471.967 1373.33 472.45C1372.36 472.933 1371.22 473.175 1369.9 473.175ZM1385.28 473.2C1383.91 473.2 1382.68 472.908 1381.58 472.325C1380.5 471.742 1379.64 470.908 1379.01 469.825C1378.39 468.742 1378.08 467.475 1378.08 466.025C1378.08 464.592 1378.4 463.333 1379.03 462.25C1379.66 461.15 1380.53 460.308 1381.63 459.725C1382.73 459.142 1383.96 458.85 1385.33 458.85C1386.7 458.85 1387.93 459.142 1389.03 459.725C1390.13 460.308 1391 461.15 1391.63 462.25C1392.26 463.333 1392.58 464.592 1392.58 466.025C1392.58 467.458 1392.26 468.725 1391.61 469.825C1390.97 470.908 1390.1 471.742 1388.98 472.325C1387.88 472.908 1386.65 473.2 1385.28 473.2ZM1385.28 469.5C1386.1 469.5 1386.79 469.2 1387.36 468.6C1387.94 468 1388.23 467.142 1388.23 466.025C1388.23 464.908 1387.95 464.05 1387.38 463.45C1386.83 462.85 1386.15 462.55 1385.33 462.55C1384.5 462.55 1383.81 462.85 1383.26 463.45C1382.71 464.033 1382.43 464.892 1382.43 466.025C1382.43 467.142 1382.7 468 1383.23 468.6C1383.78 469.2 1384.46 469.5 1385.28 469.5ZM1412.65 458.9C1414.38 458.9 1415.76 459.425 1416.77 460.475C1417.81 461.525 1418.32 462.983 1418.32 464.85V473H1414.07V465.425C1414.07 464.525 1413.83 463.833 1413.35 463.35C1412.88 462.85 1412.23 462.6 1411.4 462.6C1410.57 462.6 1409.91 462.85 1409.42 463.35C1408.96 463.833 1408.72 464.525 1408.72 465.425V473H1404.47V465.425C1404.47 464.525 1404.23 463.833 1403.75 463.35C1403.28 462.85 1402.63 462.6 1401.8 462.6C1400.97 462.6 1400.31 462.85 1399.82 463.35C1399.36 463.833 1399.12 464.525 1399.12 465.425V473H1394.85V459.05H1399.12V460.8C1399.56 460.217 1400.12 459.758 1400.82 459.425C1401.52 459.075 1402.32 458.9 1403.2 458.9C1404.25 458.9 1405.18 459.125 1406 459.575C1406.83 460.025 1407.48 460.667 1407.95 461.5C1408.43 460.733 1409.09 460.108 1409.92 459.625C1410.76 459.142 1411.67 458.9 1412.65 458.9ZM1434.46 465.8C1434.46 466.2 1434.44 466.617 1434.39 467.05H1424.71C1424.78 467.917 1425.06 468.583 1425.54 469.05C1426.04 469.5 1426.65 469.725 1427.36 469.725C1428.43 469.725 1429.17 469.275 1429.59 468.375H1434.14C1433.91 469.292 1433.48 470.117 1432.86 470.85C1432.26 471.583 1431.51 472.158 1430.59 472.575C1429.67 472.992 1428.65 473.2 1427.51 473.2C1426.15 473.2 1424.93 472.908 1423.86 472.325C1422.8 471.742 1421.96 470.908 1421.36 469.825C1420.76 468.742 1420.46 467.475 1420.46 466.025C1420.46 464.575 1420.76 463.308 1421.34 462.225C1421.94 461.142 1422.77 460.308 1423.84 459.725C1424.91 459.142 1426.13 458.85 1427.51 458.85C1428.86 458.85 1430.06 459.133 1431.11 459.7C1432.16 460.267 1432.98 461.075 1433.56 462.125C1434.16 463.175 1434.46 464.4 1434.46 465.8ZM1430.09 464.675C1430.09 463.942 1429.84 463.358 1429.34 462.925C1428.84 462.492 1428.21 462.275 1427.46 462.275C1426.75 462.275 1426.14 462.483 1425.64 462.9C1425.16 463.317 1424.86 463.908 1424.74 464.675H1430.09ZM1458.49 455.45L1452.27 473H1446.92L1440.69 455.45H1445.24L1449.59 468.7L1453.97 455.45H1458.49ZM1459.43 466C1459.43 464.567 1459.7 463.308 1460.23 462.225C1460.78 461.142 1461.52 460.308 1462.45 459.725C1463.39 459.142 1464.43 458.85 1465.58 458.85C1466.56 458.85 1467.42 459.05 1468.15 459.45C1468.9 459.85 1469.48 460.375 1469.88 461.025V459.05H1474.15V473H1469.88V471.025C1469.46 471.675 1468.88 472.2 1468.13 472.6C1467.4 473 1466.54 473.2 1465.55 473.2C1464.42 473.2 1463.39 472.908 1462.45 472.325C1461.52 471.725 1460.78 470.883 1460.23 469.8C1459.7 468.7 1459.43 467.433 1459.43 466ZM1469.88 466.025C1469.88 464.958 1469.58 464.117 1468.98 463.5C1468.4 462.883 1467.68 462.575 1466.83 462.575C1465.98 462.575 1465.25 462.883 1464.65 463.5C1464.07 464.1 1463.78 464.933 1463.78 466C1463.78 467.067 1464.07 467.917 1464.65 468.55C1465.25 469.167 1465.98 469.475 1466.83 469.475C1467.68 469.475 1468.4 469.167 1468.98 468.55C1469.58 467.933 1469.88 467.092 1469.88 466.025ZM1481.52 454.5V473H1477.25V454.5H1481.52ZM1498.39 459.05V473H1494.12V471.1C1493.69 471.717 1493.09 472.217 1492.34 472.6C1491.61 472.967 1490.79 473.15 1489.89 473.15C1488.83 473.15 1487.89 472.917 1487.07 472.45C1486.25 471.967 1485.62 471.275 1485.17 470.375C1484.72 469.475 1484.49 468.417 1484.49 467.2V459.05H1488.74V466.625C1488.74 467.558 1488.99 468.283 1489.47 468.8C1489.95 469.317 1490.6 469.575 1491.42 469.575C1492.25 469.575 1492.91 469.317 1493.39 468.8C1493.88 468.283 1494.12 467.558 1494.12 466.625V459.05H1498.39ZM1514.62 465.8C1514.62 466.2 1514.59 466.617 1514.54 467.05H1504.87C1504.93 467.917 1505.21 468.583 1505.69 469.05C1506.19 469.5 1506.8 469.725 1507.52 469.725C1508.58 469.725 1509.32 469.275 1509.74 468.375H1514.29C1514.06 469.292 1513.63 470.117 1513.02 470.85C1512.42 471.583 1511.66 472.158 1510.74 472.575C1509.82 472.992 1508.8 473.2 1507.67 473.2C1506.3 473.2 1505.08 472.908 1504.02 472.325C1502.95 471.742 1502.12 470.908 1501.52 469.825C1500.92 468.742 1500.62 467.475 1500.62 466.025C1500.62 464.575 1500.91 463.308 1501.49 462.225C1502.09 461.142 1502.92 460.308 1503.99 459.725C1505.06 459.142 1506.28 458.85 1507.67 458.85C1509.02 458.85 1510.22 459.133 1511.27 459.7C1512.32 460.267 1513.13 461.075 1513.72 462.125C1514.32 463.175 1514.62 464.4 1514.62 465.8ZM1510.24 464.675C1510.24 463.942 1509.99 463.358 1509.49 462.925C1508.99 462.492 1508.37 462.275 1507.62 462.275C1506.9 462.275 1506.29 462.483 1505.79 462.9C1505.31 463.317 1505.01 463.908 1504.89 464.675H1510.24Z"
		fill="black"
	/>
	<rect x="59" y="234" width="344" height="132" rx="30" fill="#EBF1FF" />
	<path
		d="M159.636 307.147C158.558 307.147 157.592 306.972 156.738 306.622C155.884 306.272 155.198 305.754 154.68 305.068C154.176 304.382 153.91 303.556 153.882 302.59H157.704C157.76 303.136 157.949 303.556 158.271 303.85C158.593 304.13 159.013 304.27 159.531 304.27C160.063 304.27 160.483 304.151 160.791 303.913C161.099 303.661 161.253 303.318 161.253 302.884C161.253 302.52 161.127 302.219 160.875 301.981C160.637 301.743 160.336 301.547 159.972 301.393C159.622 301.239 159.118 301.064 158.46 300.868C157.508 300.574 156.731 300.28 156.129 299.986C155.527 299.692 155.009 299.258 154.575 298.684C154.141 298.11 153.924 297.361 153.924 296.437C153.924 295.065 154.421 293.994 155.415 293.224C156.409 292.44 157.704 292.048 159.3 292.048C160.924 292.048 162.233 292.44 163.227 293.224C164.221 293.994 164.753 295.072 164.823 296.458H160.938C160.91 295.982 160.735 295.611 160.413 295.345C160.091 295.065 159.678 294.925 159.174 294.925C158.74 294.925 158.39 295.044 158.124 295.282C157.858 295.506 157.725 295.835 157.725 296.269C157.725 296.745 157.949 297.116 158.397 297.382C158.845 297.648 159.545 297.935 160.497 298.243C161.449 298.565 162.219 298.873 162.807 299.167C163.409 299.461 163.927 299.888 164.361 300.448C164.795 301.008 165.012 301.729 165.012 302.611C165.012 303.451 164.795 304.214 164.361 304.9C163.941 305.586 163.325 306.132 162.513 306.538C161.701 306.944 160.742 307.147 159.636 307.147ZM172.556 307.168C171.408 307.168 170.372 306.923 169.448 306.433C168.538 305.943 167.817 305.243 167.285 304.333C166.767 303.423 166.508 302.359 166.508 301.141C166.508 299.937 166.774 298.88 167.306 297.97C167.838 297.046 168.566 296.339 169.49 295.849C170.414 295.359 171.45 295.114 172.598 295.114C173.746 295.114 174.782 295.359 175.706 295.849C176.63 296.339 177.358 297.046 177.89 297.97C178.422 298.88 178.688 299.937 178.688 301.141C178.688 302.345 178.415 303.409 177.869 304.333C177.337 305.243 176.602 305.943 175.664 306.433C174.74 306.923 173.704 307.168 172.556 307.168ZM172.556 304.06C173.242 304.06 173.823 303.808 174.299 303.304C174.789 302.8 175.034 302.079 175.034 301.141C175.034 300.203 174.796 299.482 174.32 298.978C173.858 298.474 173.284 298.222 172.598 298.222C171.898 298.222 171.317 298.474 170.855 298.978C170.393 299.468 170.162 300.189 170.162 301.141C170.162 302.079 170.386 302.8 170.834 303.304C171.296 303.808 171.87 304.06 172.556 304.06ZM195.545 295.156C197.001 295.156 198.156 295.597 199.01 296.479C199.878 297.361 200.312 298.586 200.312 300.154V307H196.742V300.637C196.742 299.881 196.539 299.3 196.133 298.894C195.741 298.474 195.195 298.264 194.495 298.264C193.795 298.264 193.242 298.474 192.836 298.894C192.444 299.3 192.248 299.881 192.248 300.637V307H188.678V300.637C188.678 299.881 188.475 299.3 188.069 298.894C187.677 298.474 187.131 298.264 186.431 298.264C185.731 298.264 185.178 298.474 184.772 298.894C184.38 299.3 184.184 299.881 184.184 300.637V307H180.593V295.282H184.184V296.752C184.548 296.262 185.024 295.877 185.612 295.597C186.2 295.303 186.865 295.156 187.607 295.156C188.489 295.156 189.273 295.345 189.959 295.723C190.659 296.101 191.205 296.64 191.597 297.34C192.003 296.696 192.556 296.171 193.256 295.765C193.956 295.359 194.719 295.156 195.545 295.156ZM213.869 300.952C213.869 301.288 213.848 301.638 213.806 302.002H205.679C205.735 302.73 205.966 303.29 206.372 303.682C206.792 304.06 207.303 304.249 207.905 304.249C208.801 304.249 209.424 303.871 209.774 303.115H213.596C213.4 303.885 213.043 304.578 212.525 305.194C212.021 305.81 211.384 306.293 210.614 306.643C209.844 306.993 208.983 307.168 208.031 307.168C206.883 307.168 205.861 306.923 204.965 306.433C204.069 305.943 203.369 305.243 202.865 304.333C202.361 303.423 202.109 302.359 202.109 301.141C202.109 299.923 202.354 298.859 202.844 297.949C203.348 297.039 204.048 296.339 204.944 295.849C205.84 295.359 206.869 295.114 208.031 295.114C209.165 295.114 210.173 295.352 211.055 295.828C211.937 296.304 212.623 296.983 213.113 297.865C213.617 298.747 213.869 299.776 213.869 300.952ZM210.194 300.007C210.194 299.391 209.984 298.901 209.564 298.537C209.144 298.173 208.619 297.991 207.989 297.991C207.387 297.991 206.876 298.166 206.456 298.516C206.05 298.866 205.798 299.363 205.7 300.007H210.194ZM226.094 298.264H224.162V307H220.571V298.264H219.269V295.282H220.571V294.946C220.571 293.504 220.984 292.412 221.81 291.67C222.636 290.914 223.847 290.536 225.443 290.536C225.709 290.536 225.905 290.543 226.031 290.557V293.602C225.345 293.56 224.862 293.658 224.582 293.896C224.302 294.134 224.162 294.561 224.162 295.177V295.282H226.094V298.264ZM239.352 295.282V307H235.761V305.404C235.397 305.922 234.9 306.342 234.27 306.664C233.654 306.972 232.968 307.126 232.212 307.126C231.316 307.126 230.525 306.93 229.839 306.538C229.153 306.132 228.621 305.551 228.243 304.795C227.865 304.039 227.676 303.15 227.676 302.128V295.282H231.246V301.645C231.246 302.429 231.449 303.038 231.855 303.472C232.261 303.906 232.807 304.123 233.493 304.123C234.193 304.123 234.746 303.906 235.152 303.472C235.558 303.038 235.761 302.429 235.761 301.645V295.282H239.352ZM249.072 295.156C250.444 295.156 251.536 295.604 252.348 296.5C253.174 297.382 253.587 298.6 253.587 300.154V307H250.017V300.637C250.017 299.853 249.814 299.244 249.408 298.81C249.002 298.376 248.456 298.159 247.77 298.159C247.084 298.159 246.538 298.376 246.132 298.81C245.726 299.244 245.523 299.853 245.523 300.637V307H241.932V295.282H245.523V296.836C245.887 296.318 246.377 295.912 246.993 295.618C247.609 295.31 248.302 295.156 249.072 295.156ZM255.368 301.141C255.368 299.923 255.613 298.859 256.103 297.949C256.607 297.039 257.3 296.339 258.182 295.849C259.078 295.359 260.1 295.114 261.248 295.114C262.718 295.114 263.943 295.499 264.923 296.269C265.917 297.039 266.568 298.124 266.876 299.524H263.054C262.732 298.628 262.109 298.18 261.185 298.18C260.527 298.18 260.002 298.439 259.61 298.957C259.218 299.461 259.022 300.189 259.022 301.141C259.022 302.093 259.218 302.828 259.61 303.346C260.002 303.85 260.527 304.102 261.185 304.102C262.109 304.102 262.732 303.654 263.054 302.758H266.876C266.568 304.13 265.917 305.208 264.923 305.992C263.929 306.776 262.704 307.168 261.248 307.168C260.1 307.168 259.078 306.923 258.182 306.433C257.3 305.943 256.607 305.243 256.103 304.333C255.613 303.423 255.368 302.359 255.368 301.141ZM275.328 303.955V307H273.501C272.199 307 271.184 306.685 270.456 306.055C269.728 305.411 269.364 304.368 269.364 302.926V298.264H267.936V295.282H269.364V292.426H272.955V295.282H275.307V298.264H272.955V302.968C272.955 303.318 273.039 303.57 273.207 303.724C273.375 303.878 273.655 303.955 274.047 303.955H275.328ZM279.134 294.064C278.504 294.064 277.986 293.882 277.58 293.518C277.188 293.14 276.992 292.678 276.992 292.132C276.992 291.572 277.188 291.11 277.58 290.746C277.986 290.368 278.504 290.179 279.134 290.179C279.75 290.179 280.254 290.368 280.646 290.746C281.052 291.11 281.255 291.572 281.255 292.132C281.255 292.678 281.052 293.14 280.646 293.518C280.254 293.882 279.75 294.064 279.134 294.064ZM280.919 295.282V307H277.328V295.282H280.919ZM288.856 307.168C287.708 307.168 286.672 306.923 285.748 306.433C284.838 305.943 284.117 305.243 283.585 304.333C283.067 303.423 282.808 302.359 282.808 301.141C282.808 299.937 283.074 298.88 283.606 297.97C284.138 297.046 284.866 296.339 285.79 295.849C286.714 295.359 287.75 295.114 288.898 295.114C290.046 295.114 291.082 295.359 292.006 295.849C292.93 296.339 293.658 297.046 294.19 297.97C294.722 298.88 294.988 299.937 294.988 301.141C294.988 302.345 294.715 303.409 294.169 304.333C293.637 305.243 292.902 305.943 291.964 306.433C291.04 306.923 290.004 307.168 288.856 307.168ZM288.856 304.06C289.542 304.06 290.123 303.808 290.599 303.304C291.089 302.8 291.334 302.079 291.334 301.141C291.334 300.203 291.096 299.482 290.62 298.978C290.158 298.474 289.584 298.222 288.898 298.222C288.198 298.222 287.617 298.474 287.155 298.978C286.693 299.468 286.462 300.189 286.462 301.141C286.462 302.079 286.686 302.8 287.134 303.304C287.596 303.808 288.17 304.06 288.856 304.06ZM304.033 295.156C305.405 295.156 306.497 295.604 307.309 296.5C308.135 297.382 308.548 298.6 308.548 300.154V307H304.978V300.637C304.978 299.853 304.775 299.244 304.369 298.81C303.963 298.376 303.417 298.159 302.731 298.159C302.045 298.159 301.499 298.376 301.093 298.81C300.687 299.244 300.484 299.853 300.484 300.637V307H296.893V295.282H300.484V296.836C300.848 296.318 301.338 295.912 301.954 295.618C302.57 295.31 303.263 295.156 304.033 295.156Z"
		fill="black"
	/>
	<line x1="433" y1="300" x2="633" y2="300" stroke="black" stroke-width="2" />
	<circle cx="638" cy="299" r="8" fill="black" />
	<line x1="1086" y1="300" x2="1154" y2="300" stroke="black" stroke-width="2" />
	<line x1="1155" y1="160" x2="1223" y2="160" stroke="black" stroke-width="2" />
	<circle cx="1228" cy="159" r="8" fill="black" />
	<line x1="1154" y1="301" x2="1154" y2="159" stroke="black" stroke-width="2" />
	<line
		y1="-1"
		x2="68"
		y2="-1"
		transform="matrix(1 -8.74228e-08 -8.74228e-08 -1 1155 441)"
		stroke="black"
		stroke-width="2"
	/>
	<circle r="8" transform="matrix(1 0 0 -1 1228 443)" fill="black" />
	<line
		y1="-1"
		x2="142"
		y2="-1"
		transform="matrix(4.34014e-08 1 1 -4.34014e-08 1155 301)"
		stroke="black"
		stroke-width="2"
	/>
	<rect x="461" y="277" width="156" height="44" rx="22" fill="#5D92FF" />
	<path
		d="M494.96 305.112C494.181 305.112 493.477 304.979 492.848 304.712C492.229 304.445 491.739 304.061 491.376 303.56C491.013 303.059 490.827 302.467 490.816 301.784H493.216C493.248 302.243 493.408 302.605 493.696 302.872C493.995 303.139 494.4 303.272 494.912 303.272C495.435 303.272 495.845 303.149 496.144 302.904C496.443 302.648 496.592 302.317 496.592 301.912C496.592 301.581 496.491 301.309 496.288 301.096C496.085 300.883 495.829 300.717 495.52 300.6C495.221 300.472 494.805 300.333 494.272 300.184C493.547 299.971 492.955 299.763 492.496 299.56C492.048 299.347 491.659 299.032 491.328 298.616C491.008 298.189 490.848 297.624 490.848 296.92C490.848 296.259 491.013 295.683 491.344 295.192C491.675 294.701 492.139 294.328 492.736 294.072C493.333 293.805 494.016 293.672 494.784 293.672C495.936 293.672 496.869 293.955 497.584 294.52C498.309 295.075 498.709 295.853 498.784 296.856H496.32C496.299 296.472 496.133 296.157 495.824 295.912C495.525 295.656 495.125 295.528 494.624 295.528C494.187 295.528 493.835 295.64 493.568 295.864C493.312 296.088 493.184 296.413 493.184 296.84C493.184 297.139 493.28 297.389 493.472 297.592C493.675 297.784 493.92 297.944 494.208 298.072C494.507 298.189 494.923 298.328 495.456 298.488C496.181 298.701 496.773 298.915 497.232 299.128C497.691 299.341 498.085 299.661 498.416 300.088C498.747 300.515 498.912 301.075 498.912 301.768C498.912 302.365 498.757 302.92 498.448 303.432C498.139 303.944 497.685 304.355 497.088 304.664C496.491 304.963 495.781 305.112 494.96 305.112ZM504.79 305.144C503.937 305.144 503.169 304.957 502.486 304.584C501.803 304.2 501.265 303.661 500.87 302.968C500.486 302.275 500.294 301.475 500.294 300.568C500.294 299.661 500.491 298.861 500.886 298.168C501.291 297.475 501.841 296.941 502.534 296.568C503.227 296.184 504.001 295.992 504.854 295.992C505.707 295.992 506.481 296.184 507.174 296.568C507.867 296.941 508.411 297.475 508.806 298.168C509.211 298.861 509.414 299.661 509.414 300.568C509.414 301.475 509.206 302.275 508.79 302.968C508.385 303.661 507.83 304.2 507.126 304.584C506.433 304.957 505.654 305.144 504.79 305.144ZM504.79 303.192C505.195 303.192 505.574 303.096 505.926 302.904C506.289 302.701 506.577 302.403 506.79 302.008C507.003 301.613 507.11 301.133 507.11 300.568C507.11 299.725 506.886 299.08 506.438 298.632C506.001 298.173 505.462 297.944 504.822 297.944C504.182 297.944 503.643 298.173 503.206 298.632C502.779 299.08 502.566 299.725 502.566 300.568C502.566 301.411 502.774 302.061 503.19 302.52C503.617 302.968 504.15 303.192 504.79 303.192ZM522.065 296.008C523.153 296.008 524.028 296.344 524.689 297.016C525.361 297.677 525.697 298.605 525.697 299.8V305H523.457V300.104C523.457 299.411 523.281 298.883 522.929 298.52C522.577 298.147 522.097 297.96 521.489 297.96C520.881 297.96 520.396 298.147 520.033 298.52C519.681 298.883 519.505 299.411 519.505 300.104V305H517.265V300.104C517.265 299.411 517.089 298.883 516.737 298.52C516.385 298.147 515.905 297.96 515.297 297.96C514.678 297.96 514.188 298.147 513.825 298.52C513.473 298.883 513.297 299.411 513.297 300.104V305H511.057V296.136H513.297V297.208C513.585 296.835 513.953 296.541 514.401 296.328C514.86 296.115 515.361 296.008 515.905 296.008C516.598 296.008 517.217 296.157 517.761 296.456C518.305 296.744 518.726 297.16 519.025 297.704C519.313 297.192 519.729 296.781 520.273 296.472C520.828 296.163 521.425 296.008 522.065 296.008ZM536.063 300.376C536.063 300.696 536.041 300.984 535.999 301.24H529.519C529.572 301.88 529.796 302.381 530.191 302.744C530.585 303.107 531.071 303.288 531.647 303.288C532.479 303.288 533.071 302.931 533.423 302.216H535.839C535.583 303.069 535.092 303.773 534.367 304.328C533.641 304.872 532.751 305.144 531.695 305.144C530.841 305.144 530.073 304.957 529.391 304.584C528.719 304.2 528.191 303.661 527.807 302.968C527.433 302.275 527.247 301.475 527.247 300.568C527.247 299.651 527.433 298.845 527.807 298.152C528.18 297.459 528.703 296.925 529.375 296.552C530.047 296.179 530.82 295.992 531.695 295.992C532.537 295.992 533.289 296.173 533.951 296.536C534.623 296.899 535.14 297.416 535.503 298.088C535.876 298.749 536.063 299.512 536.063 300.376ZM533.743 299.736C533.732 299.16 533.524 298.701 533.119 298.36C532.713 298.008 532.217 297.832 531.631 297.832C531.076 297.832 530.607 298.003 530.223 298.344C529.849 298.675 529.62 299.139 529.535 299.736H533.743ZM551.542 293.832L547.446 305H544.726L540.63 293.832H543.03L546.102 302.712L549.158 293.832H551.542ZM552.309 300.536C552.309 299.64 552.485 298.845 552.837 298.152C553.2 297.459 553.685 296.925 554.293 296.552C554.912 296.179 555.6 295.992 556.357 295.992C557.019 295.992 557.595 296.125 558.085 296.392C558.587 296.659 558.987 296.995 559.285 297.4V296.136H561.541V305H559.285V303.704C558.997 304.12 558.597 304.467 558.085 304.744C557.584 305.011 557.003 305.144 556.341 305.144C555.595 305.144 554.912 304.952 554.293 304.568C553.685 304.184 553.2 303.645 552.837 302.952C552.485 302.248 552.309 301.443 552.309 300.536ZM559.285 300.568C559.285 300.024 559.179 299.56 558.965 299.176C558.752 298.781 558.464 298.483 558.101 298.28C557.739 298.067 557.349 297.96 556.933 297.96C556.517 297.96 556.133 298.061 555.781 298.264C555.429 298.467 555.141 298.765 554.917 299.16C554.704 299.544 554.597 300.003 554.597 300.536C554.597 301.069 554.704 301.539 554.917 301.944C555.141 302.339 555.429 302.643 555.781 302.856C556.144 303.069 556.528 303.176 556.933 303.176C557.349 303.176 557.739 303.075 558.101 302.872C558.464 302.659 558.752 302.36 558.965 301.976C559.179 301.581 559.285 301.112 559.285 300.568ZM565.969 293.16V305H563.729V293.16H565.969ZM576.55 296.136V305H574.294V303.88C574.006 304.264 573.627 304.568 573.158 304.792C572.699 305.005 572.198 305.112 571.654 305.112C570.961 305.112 570.347 304.968 569.814 304.68C569.281 304.381 568.859 303.949 568.55 303.384C568.251 302.808 568.102 302.125 568.102 301.336V296.136H570.342V301.016C570.342 301.72 570.518 302.264 570.87 302.648C571.222 303.021 571.702 303.208 572.31 303.208C572.929 303.208 573.414 303.021 573.766 302.648C574.118 302.264 574.294 301.72 574.294 301.016V296.136H576.55ZM587 300.376C587 300.696 586.979 300.984 586.936 301.24H580.456C580.51 301.88 580.734 302.381 581.128 302.744C581.523 303.107 582.008 303.288 582.584 303.288C583.416 303.288 584.008 302.931 584.36 302.216H586.776C586.52 303.069 586.03 303.773 585.304 304.328C584.579 304.872 583.688 305.144 582.632 305.144C581.779 305.144 581.011 304.957 580.328 304.584C579.656 304.2 579.128 303.661 578.744 302.968C578.371 302.275 578.184 301.475 578.184 300.568C578.184 299.651 578.371 298.845 578.744 298.152C579.118 297.459 579.64 296.925 580.312 296.552C580.984 296.179 581.758 295.992 582.632 295.992C583.475 295.992 584.227 296.173 584.888 296.536C585.56 296.899 586.078 297.416 586.44 298.088C586.814 298.749 587 299.512 587 300.376ZM584.68 299.736C584.67 299.16 584.462 298.701 584.056 298.36C583.651 298.008 583.155 297.832 582.568 297.832C582.014 297.832 581.544 298.003 581.16 298.344C580.787 298.675 580.558 299.139 580.472 299.736H584.68Z"
		fill="white"
	/>
</svg>
